#define arrows_ud_width 7
#define arrows_ud_height 11
static char arrows_ud_bits[] = {
  0x08, 0x1C, 0x3E, 0x7F, 0x14, 0x14, 0x14, 0x7F, 0x3E, 0x1C, 0x08, };
