#define arrows_zud_width 7
#define arrows_zud_height 11
static char arrows_zud_bits[] = {
  0x08, 0x1C, 0x3E, 0x63, 0x2E, 0x36, 0x3A, 0x63, 0x3E, 0x1C, 0x08, };
