#define connected_width 7
#define connected_height 7
static char connected_bits[] = {
  0x3E, 0x41, 0x1C, 0x22, 0x00, 0x08, 0x08, };
