#define spindle_width 5
#define spindle_height 10
static char spindle_bits[] = {
  0x0E, 0x0E, 0x0E, 0x0E, 0x04, 0x1F, 0x1F, 0x0E, 0x04, 0x04, };
